<?xml version="1.0" encoding="utf-8"?>
<!-- Generator: Adobe Illustrator 25.3.1, SVG Export Plug-In . SVG Version: 6.00 Build 0)  -->
<svg version="1.1" id="Layer_1" xmlns="http://www.w3.org/2000/svg" xmlns:xlink="http://www.w3.org/1999/xlink" x="0px" y="0px"
	 viewBox="0 0 512.7 339.6" style="enable-background:new 0 0 512.7 339.6;" xml:space="preserve">
<style type="text/css">
	.st0{fill:none;}
	.st1{fill:#171717;}
	.st2{fill:#F79131;}
	.st3{fill:#98C558;}
	.st4{fill:#5EB546;}
	.st5{fill:#FCB64F;}
</style>
<g>
	<path class="st0" d="M305,156.6c-4.7,0-7.4,3.2-7.4,6.9v32c0,3.7,2.7,6.9,7.4,6.9c1.6,0,3.1-0.3,4.2-1l-2.9-2.7l6.1-5.8v-29.4
		C312.4,159.8,309.8,156.6,305,156.6z"/>
	<path class="st0" d="M140.9,229.5C140.4,229.8,140.7,229.6,140.9,229.5L140.9,229.5z"/>
	<path class="st0" d="M409.5,261.6h-8.1v18.3h7.5c3.7,0,5.7-1.9,5.7-5.9v-7C414.6,263.7,413.2,261.6,409.5,261.6z"/>
	<path class="st0" d="M358.1,260.8c-4.7,0-7.4,3-7.4,7.5v30.8c0,4.5,2.7,7.5,7.4,7.5c4.8,0,7.5-3,7.5-7.5v-30.8
		C365.6,263.8,362.9,260.8,358.1,260.8z"/>
	<path class="st0" d="M312.7,65.6v-7c0-3.3-1.4-5.4-5.1-5.4h-8.1v18.3h7.5C310.7,71.5,312.7,69.6,312.7,65.6z"/>
	<polygon class="st1" points="251.1,108.6 265.4,108.6 265.4,54.2 279.7,54.2 279.7,42 236.7,42 236.7,54.2 251.1,54.2 	"/>
	<path class="st1" d="M299.5,81.4h7.7c4.1,0,5.9,3,5.9,6.5v10.9c0,6.2,2.2,10.2,8,10.2h8.5v-4.2c-1.8-1.6-2.8-3.7-2.8-6.8V87.1
		c0-4.6-2.9-9.6-8.9-11c6-1.6,8.6-5.7,8.6-11.1v-7.2c0-9.6-6.5-15.8-17.3-15.8h-24v66.6h14.3V81.4z M299.5,53.2h8.1
		c3.7,0,5.1,2.1,5.1,5.4v7c0,4-2,5.9-5.7,5.9h-7.5V53.2z"/>
	<polygon class="st1" points="372.3,96.1 349.5,96.1 349.5,79.4 365.2,79.4 365.2,68.6 349.5,68.6 349.5,54 372.3,54 372.3,42 
		335.2,42 335.2,108.6 372.3,108.6 	"/>
	<polygon class="st1" points="415.6,96.1 392.8,96.1 392.8,79.4 408.5,79.4 408.5,68.6 392.8,68.6 392.8,54 415.6,54 415.6,42 
		378.4,42 378.4,108.6 415.6,108.6 	"/>
	<polygon class="st1" points="277.5,158.2 277.5,146.2 240.4,146.2 240.4,212.8 277.5,212.8 277.5,200.3 254.7,200.3 254.7,183.6 
		270.4,183.6 270.4,172.8 254.7,172.8 254.7,158.2 	"/>
	<path class="st1" d="M326.9,194.7v-30.3c0-11.1-8.1-19.8-21.9-19.8c-13.8,0-21.9,8.7-21.9,19.8v30.2c0,11.2,8,19.9,21.1,19.9
		c5.2,0,9-1.4,12-3.4c1.8,1.8,5.2,3.4,8.5,3.4c3.4,0,5-0.6,6.5-1.7v-9c-3.5,0-4.7-0.4-6.1-1.6C326.3,200.1,326.9,197.5,326.9,194.7z
		 M312.4,192.9l-6.1,5.8l2.9,2.7c-1.1,0.7-2.6,1-4.2,1c-4.7,0-7.4-3.2-7.4-6.9v-32c0-3.7,2.7-6.9,7.4-6.9c4.8,0,7.4,3.2,7.4,6.9
		V192.9z"/>
	<path class="st1" d="M357.3,214.5c12.7,0,21.4-7.6,21.4-18.7v-49.6h-13.9v49.4c0,4.5-2.7,7-7.5,7c-4.7,0-7.3-2.5-7.3-7v-49.4h-14.5
		v49.6C335.5,206.9,344.7,214.5,357.3,214.5z"/>
	<rect x="386.5" y="146.2" class="st1" width="14.3" height="66.6"/>
	<polygon class="st1" points="449.2,146.2 406.1,146.2 406.1,158.4 420.6,158.4 420.6,212.8 434.9,212.8 434.9,158.4 449.2,158.4 	
		"/>
	<polygon class="st1" points="487.2,146.2 477.6,172.5 467.5,146.2 452.5,146.2 469.7,185.2 469.7,212.8 484,212.8 484,185.2 
		501.5,146.2 	"/>
	<path class="st1" d="M265.2,278.5c-8.5-4.4-12.3-7-12.3-11.7c0-4,2.7-6.6,6.9-6.6c5,0,7.5,3.5,7.5,8v2.1h12.9v-2.7
		c0-10.6-8.1-18.8-20.3-18.8c-13.6,0-20.9,9.2-20.9,19.4s8.5,15.5,16.5,19.8c7.7,4,11.5,6.9,11.5,11.7c0,4.6-2.5,7.5-7.6,7.5
		c-5.2,0-8-3-8-8.6v-2.2h-13.1v3.4c0,11.4,8.3,18.9,21.4,18.9c13.3,0,21.3-9.4,21.3-20.2C281,288.8,274.5,283.6,265.2,278.5z"/>
	<path class="st1" d="M309.2,248.7c-14.1,0-22.3,9.1-22.3,20.6v28.8c0,11.5,8.2,20.6,22.3,20.6c13.9,0,21-8.3,21-19.4v-6.5h-12.8
		v6.2c0,4.6-2.7,7.6-8,7.6s-8-3.1-8-7.3v-31.1c0-4.3,2.7-7.4,8-7.4s8,3,8,7.6v6.2h12.8v-6.5C330.2,257,323.1,248.7,309.2,248.7z"/>
	<path class="st1" d="M358.1,248.8c-13.7,0-21.9,8.5-21.9,20.3v29.2c0,11.9,8.2,20.4,21.9,20.4c13.8,0,21.9-8.5,21.9-20.4v-29.2
		C380,257.3,371.9,248.8,358.1,248.8z M365.6,299.1c0,4.5-2.7,7.5-7.5,7.5c-4.7,0-7.4-3-7.4-7.5v-30.8c0-4.5,2.7-7.5,7.4-7.5
		c4.8,0,7.5,3,7.5,7.5V299.1z"/>
	<path class="st1" d="M428.7,306.4v-10.9c0-4.6-2.9-9.6-8.9-11c6-1.6,8.6-5.7,8.6-11.1v-7.2c0-9.6-6.5-15.8-17.3-15.8h-24V317h14.3
		v-27.2h7.7c4.1,0,5.9,3,5.9,6.5v10.9c0,6.2,2.2,10.2,8,10.2h8.5v-4.2C429.7,311.6,428.7,309.5,428.7,306.4z M414.6,274
		c0,4-2,5.9-5.7,5.9h-7.5v-18.3h8.1c3.7,0,5.1,2.1,5.1,5.4V274z"/>
	<polygon class="st1" points="437.1,317 474.2,317 474.2,304.5 451.4,304.5 451.4,287.8 467.1,287.8 467.1,277 451.4,277 
		451.4,262.4 474.2,262.4 474.2,250.4 437.1,250.4 	"/>
	<path class="st2" d="M44.7,202.1C44.8,202.1,44.8,202.1,44.7,202.1C44.8,202.1,44.8,202.1,44.7,202.1
		C44.8,202.1,44.8,202.1,44.7,202.1z"/>
	<path class="st2" d="M41,170.8C40.9,170.8,40.8,170.7,41,170.8L41,170.8z"/>
	<path class="st2" d="M18.9,117.2C18.9,117.2,18.8,117.2,18.9,117.2C18.8,117.2,18.9,117.2,18.9,117.2
		C18.9,117.2,18.9,117.2,18.9,117.2C18.9,117.2,18.9,117.2,18.9,117.2z"/>
	<path class="st2" d="M22.6,116.2C22.6,116.2,22.6,116.2,22.6,116.2c0.1,0,0.2,0,0.2,0C23.2,116.2,22.8,116.2,22.6,116.2z"/>
	<path class="st2" d="M22.6,116.2C22.6,116.2,22.6,116.2,22.6,116.2C22.6,116.2,22.6,116.2,22.6,116.2
		C22.6,116.2,22.6,116.2,22.6,116.2z"/>
	<path class="st2" d="M44.8,202C44.8,202,44.8,202,44.8,202C44.8,202,44.8,202,44.8,202C44.8,202,44.8,202.1,44.8,202
		c0,0.1,0,0.1,0,0.1C44.8,202.1,44.8,202.1,44.8,202C44.8,202,44.8,202,44.8,202z"/>
	<path class="st2" d="M100.4,159.2l0-28.8L50.9,83l-8.8-8.2c-0.4,3.7-1,7.4-0.7,11.1c0,0.3,0,0.6,0.1,0.9c0.1,0.4,0.1,0.9,0.2,1.3
		c0.2,1,0.5,2,0.8,2.9c0.2,0.6,0.4,1.2,0.6,1.8c0,0,0,0,0,0.1c0.1,0.2,0.2,0.4,0.3,0.6c0.4,0.9,0.8,1.7,1.3,2.6
		c1,1.8,2.1,3.6,3.3,5.3c1.3,1.8,2.1,3,3.4,4.5c2.9,3.5,5.8,6.8,8.5,10.5c2.7,3.7,5.1,7.1,8,10.5c1.2,1.3,1.5,3.2,0.6,4.8
		c-1,1.6-2.7,2.1-4.5,1.8c-7.9-1.2-14.4-6.3-21-10.4c-3.1-2-6.3-4-9.6-5.6c-0.1-0.1-0.2-0.1-0.3-0.1c-0.2-0.1-0.4-0.2-0.7-0.3
		c-0.3-0.1-0.6-0.2-1-0.3c-0.5-0.1-0.9-0.3-1.4-0.4c0,0-0.8-0.1-0.8-0.2c-1.5-0.2-3-0.2-4.4-0.1c-0.7,0-1.4,0.1-2.1,0.2
		c-0.1,0-0.1,0-0.2,0c-0.3,0.1-0.7,0.1-1,0.2c-0.6,0.1-1.3,0.3-1.9,0.5c-0.2,0.1-0.3,0.1-0.5,0.2c0,0-0.1,0-0.3,0.1
		c-0.4,0.2-0.7,0.4-1.1,0.6c-0.1,0.1-0.4,0.3-0.5,0.3c-0.1,0.1-0.3,0.2-0.4,0.3c-0.1,0.1-0.3,0.3-0.4,0.4c-0.1,0.2-0.2,0.4-0.4,0.6
		c0,0.1-0.2,0.5-0.2,0.6c-0.1,0.3-0.1,0.4-0.2,0.4c0,0,0,0.1,0,0.4c-0.1,2.9,1.2,6.4,2.4,9.4c1,2.4,2.7,5.7,4.4,8.3
		c1.8,2.8,3.7,5.1,6.3,7.5c2.4,2.3,5,4.4,7,7.1c2.4,3.4,2.6,7,2.3,11c0,0.6,0,1.1,0,1.7c0,0.2,0,0.3,0,0.4c0,0,0,0.1,0.1,0.2
		c0.1,0.3,0.1,0.7,0.2,1c0,0.1,0.2,0.4,0.2,0.5c0.2,0.4,0.4,0.8,0.7,1.2c0,0.1,0,0.1,0.1,0.1c0,0,0.1,0.1,0.1,0.1
		c0.2,0.2,0.4,0.5,0.7,0.7c0.3,0.3,0.6,0.6,1,0.9c0,0,0,0,0.1,0c0.6,0.4,1.2,0.8,1.8,1.1c0.3,0.2,0.6,0.3,0.9,0.5
		c0,0,0.4,0.2,0.6,0.3c0.5,0.2,1,0.4,1.5,0.6c1.4,0.5,2.7,0.8,4.2,1.1c0.8,0.1,1.5,0.2,2.3,0.4c0,0,0.7,0.1,0.8,0.1
		c0.3,0,0.5,0.1,0.8,0.1c3.3,0.4,6.7,0.9,10,1.9c3.4,1.1,6.2,2.8,8.8,5.2c1,1,2.1,2,3.2,2.9c0.1,0.1,0.5,0.4,0.5,0.4
		c0.1,0.1,0.2,0.2,0.4,0.3c0.5,0.3,1,0.6,1.5,0.9c2.7,1.5,4.8,1.9,7.4,4.1c1.5,1.3,3,2.8,3.7,4.7c1.1,3.2,1.1,6.8,0.3,10
		c-0.5,1.9-2.9,3.5-4.9,2.8c-12-4.8-23.8-7.1-36.6-6.8c-0.6,0-1.3,0-1.9,0.1c0,0-0.6,0.2-0.9,0.3c-0.1,0-0.3,0.1-0.3,0.2
		c0.4-0.3,0,0-0.1,0.1c0,0-0.1,0.1-0.1,0.1c0,0,0,0,0,0c-0.1,0.3-0.1,1.1-0.1,0.2c0,0.2,0,0.4,0,0.7c0,0,0,0.1,0,0.1
		c0,0.2,0.1,0.4,0.1,0.6c0.1,0.3,0.2,0.6,0.3,0.8c0,0,0,0,0,0c0,0,0,0,0,0c0.2,0.5,0.5,0.9,0.8,1.4C46,206,46,206,46,206.1
		c0,0,0.1,0.1,0.1,0.1c0.2,0.2,0.3,0.3,0.5,0.5c0.4,0.4,0.9,0.8,1.4,1.2c0.2,0.2,0.4,0.3,0.6,0.5c0.1,0,0.1,0.1,0.1,0.1
		c0.1,0,0.1,0.1,0.2,0.2c0.4,0.3,0.9,0.7,1.3,1c2.2,1.7,4.4,3.5,5.8,6c0.8,1.4,1.4,2.9,1.9,4.4c0.2,0.5,0.4,1.1,0.6,1.6
		c0,0.1,0.1,0.2,0.1,0.3c0.1,0.2,0.2,0.5,0.3,0.7c0.2,0.3,0.4,0.6,0.6,0.9c0.1,0.1,0.2,0.2,0.2,0.3c0.1,0.1,0.8,0.7,0.8,0.8
		c0.7,0.5,1.5,0.9,2.3,1.3c0,0,0,0,0,0c0.1,0,0.2,0.1,0.4,0.1c0.2,0.1,0.4,0.2,0.7,0.2c0.5,0.2,1,0.4,1.5,0.5c1,0.3,2,0.6,3,0.9
		c2.3,0.8,4.7,1.7,6.7,3.2c4.2,3,7,7.4,9.2,12c2,4.2,3.9,8.3,6.2,12.3c3.3,5.7,6.7,10.9,10.7,15.8L100.4,159.2z"/>
	<path class="st2" d="M44.8,202C44.9,201.8,44.9,201.6,44.8,202C44.8,202,44.8,202,44.8,202z"/>
	<path class="st2" d="M18.9,117.2c0.1,0,0.2-0.1,0.3-0.1C19.2,117.1,19,117.1,18.9,117.2z"/>
	<path class="st3" d="M163.3,196.8C163.7,197.1,163.5,196.9,163.3,196.8L163.3,196.8z"/>
	<path class="st3" d="M163,196.6C163,196.6,163,196.6,163,196.6C163,196.6,163,196.6,163,196.6C163,196.7,163,196.6,163,196.6z"/>
	<path class="st3" d="M154.1,210.7C154.3,210.3,154.2,210.5,154.1,210.7L154.1,210.7z"/>
	<path class="st3" d="M163.3,195.4c0,0-0.1,0-0.1,0.1C163.2,195.4,163.3,195.4,163.3,195.4z"/>
	<path class="st3" d="M163.5,197c-0.1-0.1-0.1-0.1-0.2-0.2c0,0,0,0,0,0c0,0,0,0,0,0c0,0,0,0,0,0C163.3,196.8,163.4,196.9,163.5,197z
		"/>
	<path class="st3" d="M186.5,153.8c0.2-0.4,0.5-0.8,0.7-1.3c0.1-0.1,0.1-0.2,0.1-0.2c0,0,0-0.1,0.1-0.2c0.3-0.9,0.6-1.7,0.8-2.6
		c0.5-2.1,1.1-4.3,2.2-6.2c1.1-1.8,2.6-3.3,4.1-4.7c0.3-0.3,0.7-0.7,1-1.1c0,0,0.1-0.2,0.2-0.3c0.1-0.1,0.2-0.3,0.3-0.4
		c0.1-0.2,0.2-0.3,0.3-0.5c0,0,0-0.1,0-0.1c0.2-0.5,0.3-0.9,0.4-1.4c0.1-0.2,0.1-0.5,0.1-0.8c0,0,0,0,0-0.1c0.1-0.5,0.1-1,0.1-1.5
		c0.1-0.9,0.1-1.7,0.2-2.6c0.2-2,0.4-4,1.2-5.9c1.3-3.3,3.5-6,5.8-8.6c1-1.1,1.9-2.2,2.8-3.3c0.1-0.1,0.3-0.4,0.4-0.6
		c0.2-0.3,0.4-0.6,0.6-0.9c0.2-0.3,0.3-0.5,0.5-0.8c0-0.1,0.2-0.5,0.3-0.7c0.1-0.2,0.2-0.6,0.2-0.7c0-0.1,0.1-0.3,0.1-0.5
		c0,0.1,0.1-0.5,0.1-0.7c0-0.3,0-0.5,0-0.8c0,0-0.1-0.5-0.2-0.7c0-0.1-0.1-0.2-0.1-0.4c-0.2-0.3-0.3-0.6-0.5-0.9c0,0,0,0,0,0
		l-44.8,35.4l-55.1,42.6L109,272c5.4-5.7,9.8-11.9,13.5-19.1c2.3-4.4,3.9-8.5,5.3-13.5c1.5-5.2,2.4-10.5,6.3-14.5
		c3-3,6.8-4.7,10.6-6.5c1.8-0.9,3.6-1.7,5.2-2.8c0.2-0.2,0.5-0.3,0.7-0.5c0,0,0.1,0,0.1-0.1c0,0,0,0,0,0c0.3-0.3,0.7-0.6,1-0.9
		c0.3-0.3,0.6-0.6,0.8-0.9c0,0,0.5-0.6,0.6-0.8c0.3-0.5,0.6-1.1,0.9-1.6c0-0.1,0-0.1,0.1-0.1c0.1-0.2,0.2-0.4,0.3-0.7
		c0.4-1,0.7-2,1-3.1c0.7-2.2,1.5-4.6,2.8-6.5c0.8-1.1,1.6-2.2,2.7-3.1c0.3-0.2,0.6-0.4,0.8-0.7c-0.1,0.1,0.2-0.1,0.4-0.3
		c-0.2,0-0.4-0.1-0.5-0.1c0.1,0-0.8-0.1-1-0.1c-1.1,0-2.2,0.1-3.3,0.2c-3,0.3-6,0.7-9,1c-6.1,0.7-12.2,1.4-18.3,2.1
		c-1.4,0.2-2.7-0.9-3.4-2c-1.2-1.8-1.8-4-1.7-6.1c0.2-4,2.1-7.3,4.9-10c2.5-2.3,5.3-4.6,8.3-6.2c3.6-1.9,7.8-3.1,11.8-4.3
		c3.8-1.2,7.7-2.3,11.5-3.5c3.7-1.2,7.4-2.5,11.1-3.9c0.5-0.2,0.9-0.4,1.4-0.6c0.1-0.1,0.3-0.1,0.4-0.2c0,0,0,0,0,0
		c0.7-0.3,1.5-0.7,2.2-1c1.5-0.7,2.9-1.5,4.3-2.4c0.4-0.2,0.7-0.5,1-0.7c0.1-0.1,0.3-0.2,0.4-0.3c0,0,0,0,0,0c0,0,0,0,0,0
		c0.6-0.5,1.2-1,1.7-1.5c0.3-0.3,0.6-0.6,0.8-0.9c0.1-0.1,0.4-0.5,0.5-0.6C185.8,154.9,186.1,154.4,186.5,153.8z"/>
	<path class="st4" d="M158,45c-0.1,0-0.1,0-0.2,0c0,0,0,0,0,0C158,45,158,45,158,45z"/>
	<path class="st4" d="M157.7,45c0.1,0,0.1,0,0.2,0C157.8,45,157.7,45,157.7,45z"/>
	<path class="st4" d="M201,100.8L201,100.8C201,100.8,201,100.8,201,100.8z"/>
	<path class="st4" d="M115.7,28.5c-0.1-0.2-0.3-0.4-0.4-0.5c-1.1-1.3-2.2-2.5-3.5-3.6c0,0-0.4-0.3-0.5-0.4c-0.1-0.1-0.1-0.1-0.1-0.1
		c-0.4-0.3-0.7-0.5-1.1-0.8c-0.6-0.4-1.3-0.8-2-1.2l0.2,137.3l0.1,14l50.6-39l42.1-33.3c-0.1,0-0.3,0-0.4,0c-0.3,0-0.7,0-1,0
		c-0.8,0-1.5,0-2.3,0.1c-0.2,0-0.8,0.1-0.8,0.1c-0.3,0.1-0.6,0.1-1,0.2c-0.8,0.1-1.5,0.3-2.2,0.5c-1.5,0.4-2.9,0.9-4.3,1.5
		c-0.1,0-0.1,0-0.2,0.1c0,0,0,0-0.1,0c-0.2,0.1-0.3,0.1-0.5,0.2c-0.3,0.1-0.6,0.3-1,0.4c-0.7,0.3-1.4,0.7-2.1,1
		c-5.7,2.9-11,6.5-16.9,9.1c-6.3,2.8-12.9,4.2-19.7,2.9c-2.7-0.5-3.4-3.7-2.4-5.8c0.9-1.9,2.3-3.6,3.6-5.3c1.5-2,3-4.1,4.4-6.2
		c2.8-4.1,5.4-8.4,7.4-12.9c3.7-8.2,4.3-17.6,3.9-26.8c-0.1-2.3-0.2-4.5-0.4-6.8c-0.1-0.8,0-0.3-0.2-1.1c-0.1-0.5-0.2-1-0.3-1.5
		c-0.1-0.3-0.3-1.1-0.3-1.1c0,0-0.4-0.8-0.5-1c0,0-0.3-0.5-0.4-0.6c-0.1-0.1-0.1-0.2-0.2-0.2c-0.3-0.3-0.5-0.5-0.8-0.8
		c0,0,0,0-0.1-0.1c-0.1-0.1-0.3-0.2-0.3-0.2c-0.3-0.2-0.7-0.4-1-0.6c-0.1-0.1-0.3-0.1-0.4-0.2c-0.1,0-0.1-0.1-0.2-0.1
		c-0.4-0.1-0.7-0.2-1.1-0.3c-0.4-0.1-0.8-0.2-1.2-0.3c0,0,0,0-0.1,0c-0.3,0-0.3,0-0.2,0c-0.1,0-0.1,0-0.2,0c-0.9,0-1.7-0.1-2.6,0
		c-0.2,0-0.4,0-0.6,0.1c0,0,0,0-0.1,0c-0.3,0.1-0.7,0.1-1,0.2c-0.8,0.2-1.7,0.4-2.5,0.7c-0.1,0-0.6,0.2-0.7,0.3
		c-0.4,0.2-0.7,0.4-1.1,0.6c-2.7,1.6-5.2,3.6-7.7,5.4c-0.8,0.6-1.5,1.1-2.2,1.7c-0.1,0.1-0.6,0.5-0.7,0.6c0,0-0.1,0.1-0.1,0.1
		c-0.2,0.1-0.4,0.3-0.5,0.4c-1.2,0.9-2.3,1.8-3.4,2.7c-1.1,0.9-2.3,1.8-3.4,2.7c-2.8,2.3-6.3,0.7-6.7-2.8c-0.5-4.6-1-8.4-1.9-13.1
		c-0.9-4.4-2.2-8.6-4.2-12.3c-0.5-0.9-1-1.8-1.5-2.7C116.2,29.3,115.9,28.9,115.7,28.5z"/>
	<path class="st4" d="M154.4,45C154.5,45,154.8,44.9,154.4,45L154.4,45z"/>
	<path class="st5" d="M50.2,60.2C50.2,60.2,50.2,60.2,50.2,60.2C50.1,60.2,50.1,60.2,50.2,60.2C50.2,60.2,50.2,60.2,50.2,60.2z"/>
	<path class="st5" d="M50.1,60.2c-0.1,0-0.3,0-0.3,0.1C49.9,60.3,50,60.3,50.1,60.2C50.1,60.2,50.1,60.2,50.1,60.2z"/>
	<path class="st5" d="M44.2,65.5C44.1,65.6,44.1,65.6,44.2,65.5L44.2,65.5z"/>
	<path class="st5" d="M52.2,60.2c0.1,0,0.2,0,0.3,0.1C52.5,60.3,52.3,60.3,52.2,60.2z"/>
	<path class="st5" d="M46.9,61.6c-0.1,0.1-0.1,0.1-0.1,0.1c-0.3,0.4-0.7,0.7-1,1.1c0,0,0,0,0,0c-0.1,0.1-0.2,0.3-0.3,0.4
		c-0.4,0.7-0.8,1.4-1.2,2.1c0,0,0,0.1-0.1,0.1C44.1,65.6,44,65.8,44,66c0,0.1-0.1,0.2-0.1,0.3l12.2,11.5l44.3,42.4l-0.1-100.8
		c-0.2,0-0.4,0-0.5,0c-0.8,0-1.6,0-2.5,0.1c-0.1,0-0.2,0-0.4,0.1c-0.4,0.1-0.8,0.2-1.2,0.3c-0.5,0.1-0.9,0.3-1.4,0.4
		c-0.1,0-0.2,0-0.2,0.1c0,0-0.1,0.1-0.2,0.1c-0.7,0.4-1.5,0.8-2.2,1.2c-1.2,0.8-2.6,2-3.8,3.5c0,0-0.2,0.3-0.3,0.4
		c-0.1,0.1-0.2,0.3-0.2,0.3c-0.3,0.4-0.5,0.8-0.8,1.2c-0.5,0.8-0.9,1.6-1.3,2.4c-0.1,0.2-0.4,1-0.4,0.8c-0.1,0.3-0.2,0.6-0.3,0.8
		c-0.3,0.8-0.6,1.7-0.9,2.5c-0.6,1.7-1.1,3.5-1.5,5.3c-0.2,1-0.4,2-0.6,2.9c-0.1,0.5-0.2,1-0.3,1.5c0,0.1-0.1,0.6-0.1,0.8
		c-0.6,4-0.7,8.1-0.3,12.1c0,0.4,0.1,0.7,0.1,1.1c0,0,0,0.2,0,0.3c0,0.1,0.1,0.4,0.1,0.3c0,0.2,0.1,0.4,0.1,0.6
		c0.1,0.7,0.3,1.5,0.4,2.2c0.2,1.1,0.5,2.2,0.7,3.3c0.6,2.7-1.2,4.7-3.8,5c-8.1,0.9-15.2-4.4-22.2-7.6c0,0,0,0-0.1,0c0,0,0,0-0.1,0
		c-0.2-0.1-0.4-0.2-0.6-0.2c-0.4-0.1-0.7-0.3-1.1-0.4c-0.7-0.2-1.4-0.4-2.1-0.6c0,0-0.1,0-0.1,0c0,0,0,0-0.3-0.1c-0.3,0-0.7,0-1,0
		c-0.3,0-0.6,0-1,0c-0.4,0.1-0.4,0.1-0.4,0.1c0,0,0,0,0,0c-0.4,0.1-0.8,0.2-1.2,0.3c0,0-0.2,0.1-0.3,0.1c-0.1,0-0.1,0.1-0.1,0.1
		c-0.3,0.2-0.7,0.4-1,0.6C47.1,61.5,47,61.6,46.9,61.6z"/>
	<path class="st5" d="M52.2,60.2c-0.1,0-0.1,0-0.2,0C52.1,60.2,52.1,60.2,52.2,60.2C52.2,60.2,52.2,60.2,52.2,60.2
		C52.2,60.2,52.2,60.2,52.2,60.2z"/>
	<path class="st1" d="M208.9,95.1c-6.5-3.1-13.8-2.6-20.5-0.2c-6.3,2.2-12,5.8-17.8,9c-1.4,0.8-2.9,1.6-4.4,2.3
		c-0.7,0.3-1.4,0.6-2,1c-0.1,0.1-0.3,0.1-0.4,0.2c-0.4,0.2-0.8,0.3-1.2,0.5c-1.4,0.5-2.9,1-4.3,1.3c-0.3,0.1-0.7,0.1-1,0.2
		c-0.1,0-0.3,0-0.5,0.1c1.2-1.7,2.4-3.3,3.6-5c2.7-4,5.3-8,7.3-12.4c2.2-4.7,3.8-9.5,4.7-14.6c0.9-5.3,1.1-10.6,0.9-16
		c-0.1-4.9,0-10.4-2-15c-1.8-4.2-5.3-7.2-9.7-8.5c-3.9-1.2-8.3-1-12.2,0.2c-3.6,1.1-6.5,3.2-9.5,5.4c-3.1,2.2-6.1,4.5-9,6.9
		c-0.9-6.7-2.3-13.3-5.1-19.6c-3.5-7.9-9.6-14.1-17.6-17.3c-3.5-1.4-7.5-2.1-11.3-1.7c-4.4,0.5-8.3,2.2-11.7,5
		c-6.6,5.4-9.5,14.1-11,22.2c-1,5-1.5,10.2-1.3,15.4c0.1,2.2,0.4,4.5,0.8,6.7c-0.6-0.2-1.2-0.3-1.8-0.6c-0.4-0.1-0.7-0.3-1-0.4
		c-0.1,0-0.7-0.3-0.9-0.4c-3.3-1.5-6.3-3.4-9.6-4.8c-3.4-1.5-7.1-2.8-10.9-2.3c-4.5,0.5-8.1,2.8-10.8,6.5c-2.3,3.2-3.4,7.1-4,10.9
		c-0.7,4.2-1.2,8.6-1.4,12.9c-0.4,9.2,3.9,17.4,9.2,24.6c2.9,4,6.6,7.8,9.4,11.5c0.2,0.3,0.5,0.6,0.7,1c-1.3-0.8-2.5-1.6-3.8-2.5
		c-2.8-1.8-5.7-3.5-8.5-5.2c-2.9-1.7-6.1-3.1-9.4-3.6c-5.5-0.8-12-0.5-17,2.3c-2.7,1.5-4.7,3.9-5.6,6.8c-1.2,3.7-0.2,7.8,1,11.4
		c2.1,6.7,5.5,12.8,9.9,18.3c2,2.5,4.3,4.7,6.7,6.8c1,0.9,2.1,1.9,3,3c0,0.1,0.4,0.6,0.4,0.6c0.2,0.3,0.4,0.7,0.6,1
		c0.1,0.2,0.3,0.8,0.4,1.2c0.3,1.8-0.2,3.6-0.1,5.4c0,1.7,0.3,3.5,0.9,5.1c1.2,3.1,3.4,5.4,6.1,7.3c2.3,1.7,5.1,2.8,7.9,3.6
		c1.3,0.4,2.5,0.6,3.8,0.8c0.7,0.1,1.5,0.2,2.2,0.3c0.6,0.1,1.2,0.2,1.9,0.2c0,0,0.4,0.1,0.7,0.1c1.7,0.2,3.4,0.5,5.1,0.9
		c0.8,0.2,1.7,0.4,2.5,0.6c0.3,0.1,0.6,0.2,0.9,0.3c0.1,0,1.1,0.4,1,0.4c0.7,0.3,1.3,0.6,1.9,1c0.3,0.2,0.6,0.4,0.9,0.6
		c0,0.1,0.8,0.7,0.8,0.8c1.1,1,2.1,2,3.3,3c2.4,2,4.8,3.5,7.7,4.7c0.5,0.2,0.9,0.4,1.4,0.6c0,0,0.4,0.2,0.5,0.3
		c0.1,0.1,0.4,0.3,0.4,0.3c0.2,0.2,0.5,0.4,0.7,0.6c0.4,0.4,0.8,0.8,1.2,1.2c0.1,0.2,0.1,0.4,0.2,0.6c-9.9-3.4-20.1-5.3-30.6-5.4
		c-2.9,0-6.1-0.2-8.9,0.9c-2.9,1.1-5.2,3.5-5.7,6.7c-0.5,2.9,0.2,5.8,1.7,8.3c1.5,2.5,3.7,4.3,6,6c1.1,0.9,1.3,0.9,2.4,1.9
		c1,0.9,1.8,1.7,2.2,2.5c0.4,0.7,0.5,1,0.7,1.4c0.2,0.5,0.4,1.1,0.6,1.6c0.5,1.5,1,3.1,1.8,4.4c2.8,4.8,8,6.5,13,8.1
		c1,0.3,2.1,0.7,3.1,1.1c0.1,0.1,0.7,0.3,0.9,0.4c0.6,0.3,1.2,0.7,1.8,1.1c0.1,0,0.1,0.1,0.1,0.1c0,0,0.1,0.1,0.1,0.1
		c0.2,0.2,0.4,0.3,0.6,0.5c0.5,0.4,0.9,0.9,1.3,1.4c0.1,0.2,0.3,0.3,0.4,0.5c0.1,0.1,0.1,0.2,0.2,0.2c0.5,0.6,0.9,1.3,1.3,1.9
		c2.6,4.2,4.2,8.8,6.5,13.1c2.8,5.2,6,10.2,9.4,15c3.1,4.3,6.4,8.6,10.1,12.4c0,7,0.4,26.3,3.3,42.5c0.3,1.9,2,3.2,3.8,3.2
		c0.2,0,0.4,0,0.7-0.1c2.1-0.4,3.5-2.4,3.1-4.5c-2.7-15.3-3.1-34.1-3.2-41.1c7.7-6.7,14.2-14.7,19.1-23.6c2.6-4.8,4.8-9.8,6.5-14.9
		c0.8-2.5,1.5-5.1,2.2-7.7c0.2-0.7,0.4-1.3,0.6-2c0.1-0.3,0.2-0.6,0.3-0.9c0-0.1,0.1-0.2,0.1-0.3c0,0,0-0.1,0.1-0.2
		c0.3-0.6,0.6-1.2,1-1.8c0.1-0.1,0.1-0.2,0.2-0.3c0,0,0.4-0.4,0.4-0.5c0.3-0.4,0.7-0.7,1-1c0.2-0.2,0.4-0.3,0.6-0.5c0,0,0,0,0,0
		c0.9-0.6,1.8-1.2,2.7-1.7c1.9-1,3.8-1.9,5.7-2.8c4.1-2,8.1-4.5,10.6-8.5c1.3-2.1,2.1-4.5,2.9-6.8c0.3-1,0.7-2,1-3
		c0.1-0.1,0.1-0.3,0.2-0.4c0.1-0.3,0.3-0.5,0.4-0.8c0.1-0.2,0.2-0.4,0.4-0.6c0.1-0.1,0.3-0.4,0.4-0.5c0.3-0.3,0.6-0.6,0.9-0.9
		c0,0,0.4-0.3,0.5-0.4c0.3-0.2,0.6-0.5,0.9-0.7c1-0.8,1.9-1.7,2.5-2.9c1.4-2.8,0.9-6.1-1.3-8.2c-4.5-4.3-11.6-2.5-17.1-1.9
		c-6.3,0.7-12.6,1.4-18.9,2.1c0,0,0,0,0-0.1c0,0,0-0.1,0-0.2c0-0.1,0.1-0.4,0.1-0.4c0-0.1,0.3-0.9,0.3-0.8c0.2-0.3,0.3-0.6,0.5-0.9
		c0-0.1,0.1-0.1,0.1-0.2c0,0,0.1-0.1,0.2-0.2c0.2-0.3,0.5-0.5,0.7-0.8c0.5-0.5,1.1-1,1.6-1.5c0.3-0.3,0.6-0.6,1-0.8
		c0.2-0.2,0.9-0.7,0.8-0.6c0.8-0.7,2.6-1.8,3.9-2.5c0.2-0.1,0.5-0.2,0.7-0.4c0.2-0.1,0.5-0.2,0.7-0.3c1.1-0.4,2.2-0.8,3.3-1.2
		c2-0.7,4-1.3,6-1.9c3.9-1.2,7.9-2.3,11.8-3.6c7-2.2,14.5-4.6,20.6-8.7c3-2,5.7-4.4,7.7-7.5c1-1.5,1.8-3.3,2.4-5
		c0.6-1.9,0.9-3.9,1.6-5.7c0,0,0-0.1,0.1-0.1c0.1-0.3,0.3-0.5,0.4-0.8c0.1-0.2,0.2-0.3,0.3-0.5c0,0,0,0,0.1-0.1
		c0.6-0.7,1.4-1.4,2.1-2.1c1.7-1.6,3-3.4,3.9-5.6c0.8-2,1-4.1,1.1-6.2c0.1-0.9,0.1-1.9,0.2-2.8c0.1-0.9,0.1-1.2,0.4-2.3
		c0.1-0.4,0.2-0.7,0.4-1.1c0.1-0.2,0.2-0.3,0.2-0.5c0.4-0.7,0.8-1.4,1.2-2c0.1-0.2,0.3-0.4,0.4-0.6c0,0,0.4-0.5,0.5-0.6
		c0.5-0.6,1-1.2,1.6-1.8c2.1-2.4,4.4-4.8,5.8-7.6c1.6-3.2,2.2-6.9,1-10.4C215,99.5,212.3,96.7,208.9,95.1z M184.1,156.9
		c-0.5,0.5-1.1,1-1.7,1.5c0,0,0,0,0,0c0,0,0,0,0,0c-0.1,0.1-0.3,0.2-0.4,0.3c-0.3,0.2-0.7,0.5-1,0.7c-1.4,0.9-2.8,1.7-4.3,2.4
		c-0.7,0.4-1.5,0.7-2.2,1c0,0,0,0,0,0c-0.1,0.1-0.3,0.1-0.4,0.2c-0.5,0.2-0.9,0.4-1.4,0.6c-3.6,1.4-7.3,2.7-11.1,3.9
		c-3.8,1.2-7.7,2.3-11.5,3.5c-3.9,1.2-8.1,2.4-11.8,4.3c-3,1.6-5.8,3.8-8.3,6.2c-2.8,2.7-4.8,6-4.9,10c-0.1,2.1,0.5,4.4,1.7,6.1
		c0.7,1.1,2,2.1,3.4,2c6.1-0.7,12.2-1.4,18.3-2.1c3-0.3,6-0.7,9-1c1.1-0.1,2.2-0.3,3.3-0.2c0.2,0,1.1,0.1,1,0.1
		c0.2,0,0.4,0.1,0.5,0.1c-0.2,0.2-0.5,0.4-0.4,0.3c-0.3,0.2-0.6,0.4-0.8,0.7c-1.1,0.9-1.9,1.9-2.7,3.1c-1.3,2-2.1,4.3-2.8,6.5
		c-0.3,1-0.7,2-1,3.1c-0.1,0.2-0.2,0.4-0.3,0.7c0,0,0,0.1-0.1,0.1c-0.3,0.6-0.6,1.1-0.9,1.6c-0.1,0.1-0.6,0.8-0.6,0.8
		c-0.3,0.3-0.5,0.6-0.8,0.9c-0.3,0.3-0.6,0.6-1,0.9c0,0,0,0,0,0c0,0,0,0-0.1,0.1c-0.2,0.2-0.5,0.3-0.7,0.5c-1.7,1.1-3.4,2-5.2,2.8
		c-3.7,1.8-7.6,3.5-10.6,6.5c-4,4-4.8,9.3-6.3,14.5c-1.5,5-3.1,9-5.3,13.5c-3.7,7.2-8.1,13.5-13.5,19.1l-0.6-89.7l55.1-42.6
		l44.8-35.4c0,0,0,0,0,0c0.2,0.3,0.3,0.6,0.5,0.9c0,0.1,0.1,0.2,0.1,0.4c0.1,0.2,0.1,0.7,0.2,0.7c0,0.3,0,0.5,0,0.8
		c0,0.2-0.1,0.7-0.1,0.7c-0.1,0.2-0.1,0.5-0.1,0.5c0,0.1-0.2,0.5-0.2,0.7c-0.1,0.2-0.3,0.6-0.3,0.7c-0.1,0.3-0.3,0.5-0.5,0.8
		c-0.2,0.3-0.4,0.6-0.6,0.9c-0.1,0.1-0.3,0.4-0.4,0.6c-0.9,1.1-1.9,2.2-2.8,3.3c-2.3,2.6-4.5,5.3-5.8,8.6c-0.8,1.9-1,3.9-1.2,5.9
		c-0.1,0.9-0.1,1.7-0.2,2.6c0,0.5-0.1,1-0.1,1.5c0,0,0,0.1,0,0.1c0,0.3-0.1,0.5-0.1,0.8c-0.1,0.5-0.2,0.9-0.4,1.4c0,0,0,0.1,0,0.1
		c-0.1,0.2-0.2,0.3-0.3,0.5c-0.1,0.1-0.2,0.3-0.3,0.4c-0.1,0.1-0.2,0.3-0.2,0.3c-0.3,0.4-0.7,0.7-1,1.1c-1.5,1.5-3,2.9-4.1,4.7
		c-1.1,1.9-1.7,4.1-2.2,6.2c-0.2,0.9-0.5,1.7-0.8,2.6c0,0.1-0.1,0.2-0.1,0.2c0,0,0,0.1-0.1,0.2c-0.2,0.4-0.4,0.9-0.7,1.3
		c-0.3,0.6-0.7,1.1-1.1,1.6c-0.1,0.1-0.4,0.5-0.5,0.6C184.6,156.3,184.4,156.6,184.1,156.9z M163.3,196.8
		C163.3,196.8,163.3,196.8,163.3,196.8C163.3,196.8,163.3,196.8,163.3,196.8C163.3,196.8,163.3,196.8,163.3,196.8
		c0.1,0.1,0.2,0.2,0.2,0.2C163.4,196.9,163.3,196.8,163.3,196.8z M163,196.6C163,196.6,163,196.7,163,196.6
		C163,196.6,163,196.6,163,196.6C163,196.6,163,196.6,163,196.6z M163.3,196.8C163.5,196.9,163.7,197.1,163.3,196.8L163.3,196.8z
		 M163.3,195.4c0,0,0,0-0.1,0.1C163.2,195.4,163.2,195.4,163.3,195.4z M154.1,210.7C154.2,210.5,154.3,210.3,154.1,210.7
		L154.1,210.7z M84.3,243c-2.2-4.6-4.9-9-9.2-12c-2-1.4-4.4-2.4-6.7-3.2c-1-0.3-2-0.6-3-0.9c-0.5-0.2-1-0.3-1.5-0.5
		c-0.2-0.1-0.4-0.2-0.7-0.2c-0.1,0-0.2-0.1-0.4-0.1c0,0,0,0,0,0c-0.8-0.4-1.6-0.8-2.3-1.3c0-0.1-0.7-0.7-0.8-0.8
		c-0.1-0.1-0.2-0.2-0.2-0.3c-0.2-0.3-0.4-0.6-0.6-0.9c-0.1-0.2-0.2-0.5-0.3-0.7c0-0.1-0.1-0.2-0.1-0.3c-0.2-0.5-0.4-1.1-0.6-1.6
		c-0.5-1.5-1.1-3.1-1.9-4.4c-1.5-2.5-3.6-4.3-5.8-6c-0.4-0.3-0.9-0.7-1.3-1c-0.1-0.1-0.2-0.1-0.2-0.2c0,0,0,0-0.1-0.1
		c-0.2-0.2-0.4-0.3-0.6-0.5c-0.5-0.4-0.9-0.8-1.4-1.2c-0.2-0.2-0.3-0.3-0.5-0.5c-0.1-0.1-0.1-0.1-0.1-0.1c0,0-0.1-0.1-0.1-0.2
		c-0.3-0.5-0.6-0.9-0.8-1.4c0,0,0,0,0,0c0,0,0,0,0,0c-0.1-0.3-0.2-0.6-0.3-0.8c0-0.2-0.1-0.4-0.1-0.6c0,0,0,0,0-0.1
		c0-0.2,0-0.4,0-0.7c0,0.9,0,0.1,0.1-0.2c0,0,0,0,0,0c0,0,0,0,0,0c0,0,0,0,0,0c0,0,0,0,0,0c0,0,0,0,0,0c0,0,0,0,0,0c0,0,0,0.1,0,0.1
		c0,0,0.1-0.1,0.1-0.1c0.2-0.2,0.5-0.4,0.1-0.1c0,0,0.2-0.1,0.3-0.2c0.3-0.1,0.9-0.2,0.9-0.3c0.6-0.1,1.3-0.1,1.9-0.1
		c12.8-0.3,24.6,2,36.6,6.8c2,0.8,4.4-0.9,4.9-2.8c0.8-3.2,0.8-6.8-0.3-10c-0.7-1.9-2.2-3.4-3.7-4.7c-2.5-2.2-4.7-2.5-7.4-4.1
		c-0.5-0.3-1-0.6-1.5-0.9c-0.1-0.1-0.2-0.2-0.4-0.3c0,0-0.4-0.3-0.5-0.4c-1.1-0.9-2.1-1.9-3.2-2.9c-2.6-2.4-5.4-4.1-8.8-5.2
		c-3.2-1.1-6.6-1.5-10-1.9c-0.3,0-0.5-0.1-0.8-0.1c-0.1,0-0.8-0.1-0.8-0.1c-0.8-0.1-1.5-0.2-2.3-0.4c-1.4-0.3-2.8-0.6-4.2-1.1
		c-0.5-0.2-1-0.4-1.5-0.6c-0.2-0.1-0.5-0.2-0.6-0.3c-0.3-0.2-0.6-0.3-0.9-0.5c-0.6-0.3-1.2-0.7-1.8-1.1c0,0,0,0-0.1,0
		c-0.3-0.3-0.7-0.6-1-0.9c-0.2-0.2-0.5-0.5-0.7-0.7c-0.1-0.1-0.1-0.1-0.1-0.1c0,0,0-0.1-0.1-0.1c-0.2-0.4-0.5-0.8-0.7-1.2
		c-0.1-0.1-0.2-0.4-0.2-0.5c-0.1-0.3-0.2-0.6-0.2-1c0-0.1,0-0.2-0.1-0.2c0-0.1,0-0.2,0-0.4c0-0.6,0-1.1,0-1.7c0.2-4,0.1-7.6-2.3-11
		c-2-2.7-4.6-4.8-7-7.1c-2.6-2.5-4.4-4.7-6.3-7.5c-1.7-2.6-3.4-5.8-4.4-8.3c-1.2-3-2.5-6.5-2.4-9.4c0-0.3,0-0.4,0-0.4
		c0,0,0.1-0.1,0.2-0.4c0-0.1,0.2-0.5,0.2-0.6c0.1-0.2,0.2-0.4,0.4-0.6c0.1-0.1,0.3-0.3,0.4-0.4c0.1-0.1,0.2-0.2,0.4-0.3
		c0.1-0.1,0.4-0.3,0.5-0.3c0.4-0.2,0.7-0.4,1.1-0.6c0,0,0,0-0.1,0c0,0,0.1,0,0.1,0c0.1-0.1,0.3-0.1,0.3-0.1c0.2-0.1,0.3-0.1,0.5-0.2
		c0.6-0.2,1.3-0.4,1.9-0.5c0.3-0.1,0.7-0.1,1-0.2c0,0,0,0,0,0c0,0,0,0,0,0c0,0,0,0,0,0c0.1,0,0.6-0.1,0.2,0c0.7-0.1,1.4-0.1,2.1-0.2
		c1.5-0.1,3-0.1,4.4,0.1c0,0,0.9,0.2,0.8,0.2c0.5,0.1,1,0.2,1.4,0.4c0.3,0.1,0.7,0.2,1,0.3c0.2,0.1,0.4,0.2,0.7,0.3
		c0.1,0,0.1,0.1,0.3,0.1c3.3,1.6,6.5,3.6,9.6,5.6c6.6,4.1,13.1,9.3,21,10.4c1.8,0.3,3.5-0.2,4.5-1.8c0.9-1.6,0.6-3.5-0.6-4.8
		c-3-3.3-5.3-6.8-8-10.5c-2.7-3.6-5.6-7-8.5-10.5c-1.3-1.6-2.1-2.7-3.4-4.5c-1.2-1.7-2.3-3.5-3.3-5.3c-0.5-0.8-0.9-1.7-1.3-2.6
		c-0.1-0.2-0.2-0.4-0.3-0.6c0,0,0,0,0-0.1c-0.2-0.6-0.4-1.2-0.6-1.8c-0.3-1-0.6-1.9-0.8-2.9c-0.1-0.4-0.2-0.9-0.2-1.3
		c0-0.3-0.1-0.6-0.1-0.9c-0.3-3.7,0.3-7.4,0.7-11.1l8.8,8.2l49.5,47.4l0,28.8l0.8,111.9c-3.9-4.9-7.4-10.2-10.7-15.8
		C88.2,251.3,86.3,247.2,84.3,243z M44.8,202C44.8,202,44.8,202,44.8,202C44.9,201.6,44.9,201.8,44.8,202z M41,170.8
		C40.8,170.7,40.9,170.8,41,170.8L41,170.8z M48.2,60.8c0,0,0.1,0,0.1-0.1c0.1,0,0.2-0.1,0.3-0.1c0.4-0.1,0.8-0.2,1.2-0.3
		c0,0,0,0,0,0c0,0,0.2-0.1,0.3-0.1c0,0,0,0,0.1,0c0,0,0.1,0,0.1,0c0,0,0,0-0.1,0c0.3,0,0.6,0,1,0c0.3,0,0.7,0,1,0c0,0-0.1,0-0.1,0
		c0.1,0,0.1,0,0.2,0c0.1,0,0.3,0,0.3,0.1c0,0,0.1,0,0.1,0c0.7,0.1,1.4,0.3,2.1,0.6c0.4,0.1,0.7,0.2,1.1,0.4c0.2,0.1,0.4,0.2,0.6,0.2
		c0,0,0,0,0.1,0c0,0,0,0,0.1,0c7,3.2,14.1,8.5,22.2,7.6c2.6-0.3,4.4-2.3,3.8-5c-0.2-1.1-0.5-2.2-0.7-3.3c-0.2-0.7-0.3-1.5-0.4-2.2
		c0-0.2-0.1-0.4-0.1-0.6c0,0,0-0.2-0.1-0.3c0-0.1,0-0.4,0-0.3c0-0.4-0.1-0.7-0.1-1.1c-0.4-4-0.3-8.1,0.3-12.1c0-0.1,0.1-0.7,0.1-0.8
		c0.1-0.5,0.2-1,0.3-1.5c0.2-1,0.4-2,0.6-2.9c0.4-1.8,0.9-3.6,1.5-5.3c0.3-0.8,0.6-1.7,0.9-2.5c0.1-0.3,0.2-0.6,0.3-0.8
		c-0.1,0.2,0.3-0.6,0.4-0.8c0.4-0.8,0.8-1.6,1.3-2.4c0.3-0.4,0.5-0.8,0.8-1.2c0,0,0.1-0.2,0.2-0.3c0.1-0.1,0.3-0.3,0.3-0.4
		c1.2-1.4,2.6-2.7,3.8-3.5c0.7-0.5,1.4-0.8,2.2-1.2c0.1,0,0.1-0.1,0.2-0.1c0,0,0.1,0,0.2-0.1c0.5-0.1,0.9-0.3,1.4-0.4
		c0.4-0.1,0.8-0.2,1.2-0.3c0.1,0,0.2,0,0.4-0.1c0.8,0,1.6-0.1,2.5-0.1c0.2,0,0.4,0,0.5,0l0.1,100.8L56.1,77.8L43.8,66.4
		c0-0.1,0.1-0.2,0.1-0.3c0.1-0.2,0.1-0.4,0.2-0.6c0,0,0-0.1,0.1-0.1c0.4-0.7,0.7-1.4,1.2-2.1c0.1-0.1,0.2-0.3,0.3-0.4c0,0,0,0,0,0
		c0.3-0.4,0.7-0.7,1-1.1c0,0,0.1-0.1,0.1-0.1c0.1-0.1,0.2-0.2,0.3-0.2C47.5,61.2,47.8,61,48.2,60.8z M122.1,44.6
		c1,4.7,1.4,8.4,1.9,13.1c0.4,3.5,4,5.1,6.7,2.8c1.1-0.9,2.3-1.8,3.4-2.7c1.1-0.9,2.3-1.8,3.4-2.7c0.2-0.1,0.4-0.3,0.5-0.4
		c0,0,0.1,0,0.1-0.1c0.1-0.1,0.6-0.5,0.7-0.6c0.7-0.6,1.5-1.1,2.2-1.7c2.5-1.9,5-3.8,7.7-5.4c0.3-0.2,0.7-0.4,1.1-0.6
		c0.1-0.1,0.6-0.3,0.7-0.3c0.8-0.3,1.6-0.6,2.5-0.7c0.3-0.1,0.7-0.1,1-0.2c0,0,0,0,0.1,0c0.2,0,0.4,0,0.6-0.1c0.9-0.1,1.7,0,2.6,0
		c0.1,0,0.1,0,0.2,0c0,0,0.1,0,0.2,0c0.1,0,0.1,0,0.2,0c0,0-0.1,0-0.1,0c0,0,0.1,0,0.1,0c0.4,0.1,0.8,0.2,1.2,0.3
		c0.4,0.1,0.7,0.2,1.1,0.3c0,0,0.1,0,0.2,0.1c0.1,0.1,0.3,0.1,0.4,0.2c0.3,0.2,0.7,0.4,1,0.6c0,0,0.2,0.1,0.3,0.2c0,0,0.1,0,0.1,0.1
		c0.3,0.3,0.6,0.5,0.8,0.8c0,0,0.1,0.1,0.2,0.2c0.1,0.2,0.4,0.6,0.4,0.6c0.2,0.3,0.5,1,0.5,1c0,0,0.3,0.9,0.3,1.1
		c0.1,0.5,0.2,1,0.3,1.5c0.1,0.8,0.1,0.3,0.2,1.1c0.2,2.3,0.3,4.5,0.4,6.8c0.4,9.2-0.2,18.7-3.9,26.8c-2,4.5-4.6,8.8-7.4,12.9
		c-1.4,2.1-2.9,4.1-4.4,6.2c-1.3,1.7-2.7,3.3-3.6,5.3c-1,2.1-0.3,5.3,2.4,5.8c6.9,1.4,13.4,0,19.7-2.9c5.8-2.6,11.2-6.2,16.9-9.1
		c0.7-0.4,1.4-0.7,2.1-1c0.3-0.2,0.6-0.3,1-0.4c0.2-0.1,0.3-0.1,0.5-0.2c0,0,0,0,0.1,0c0,0,0.1,0,0.2-0.1c1.4-0.6,2.9-1.1,4.3-1.5
		c0.7-0.2,1.5-0.4,2.2-0.5c0.3-0.1,0.6-0.1,1-0.2c0,0,0.6-0.1,0.8-0.1c0.8-0.1,1.5-0.1,2.3-0.1c0.3,0,0.7,0,1,0c0.1,0,0.3,0,0.4,0
		l-42.1,33.3l-50.6,39l-0.1-14l-0.2-137.3c0.7,0.4,1.3,0.8,2,1.2c0.4,0.2,0.7,0.5,1.1,0.8c0,0,0.1,0.1,0.1,0.1
		c0.1,0.1,0.5,0.4,0.5,0.4c1.3,1.1,2.5,2.3,3.5,3.6c0.1,0.2,0.3,0.4,0.4,0.5c0.3,0.4,0.5,0.7,0.7,1.1c0.6,0.9,1.1,1.7,1.5,2.7
		C119.9,36,121.2,40.2,122.1,44.6z M154.4,45C154.8,44.9,154.5,45,154.4,45L154.4,45z M201,100.8C201,100.8,201,100.8,201,100.8
		L201,100.8z M44.2,65.5C44.1,65.6,44.1,65.6,44.2,65.5L44.2,65.5z M140.9,229.5C140.7,229.6,140.4,229.8,140.9,229.5L140.9,229.5z"
		/>
	<path class="st1" d="M44.8,202.1C44.8,202.1,44.8,202.1,44.8,202.1C44.8,202.1,44.8,202.1,44.8,202.1
		C44.8,202.1,44.8,202.1,44.8,202.1z"/>
	<path class="st1" d="M19.2,117.1c-0.1,0-0.2,0.1-0.3,0.1c0,0,0,0,0,0c0,0,0,0,0,0C19.1,117.1,19.2,117.1,19.2,117.1z"/>
	<path class="st1" d="M22.6,116.2C22.6,116.2,22.6,116.2,22.6,116.2c0.1,0,0.2,0,0.2,0C22.8,116.2,22.7,116.2,22.6,116.2z"/>
	<path class="st1" d="M157.9,45C157.9,45,157.9,45,157.9,45c-0.1,0-0.2,0-0.2,0C157.6,45,157.6,45,157.9,45z"/>
	<path class="st1" d="M50.2,60.2C50.1,60.2,50.1,60.2,50.2,60.2c-0.1,0-0.3,0-0.4,0.1C49.7,60.3,49.8,60.3,50.2,60.2z"/>
	<path class="st1" d="M52.5,60.3c-0.1,0-0.2,0-0.3-0.1c0,0,0,0,0,0c0,0,0,0,0,0C52.5,60.3,52.5,60.3,52.5,60.3z"/>
</g>
</svg>
